<svg width="28" height="28" viewBox="0 0 28 28" fill="none" xmlns="http://www.w3.org/2000/svg">
<path d="M8.16666 25.6667C7.52499 25.6667 6.97588 25.4384 6.51932 24.9819C6.06199 24.5245 5.83332 23.975 5.83332 23.3334C5.83332 22.6917 6.06199 22.1422 6.51932 21.6849C6.97588 21.2283 7.52499 21 8.16666 21C8.80832 21 9.35743 21.2283 9.81399 21.6849C10.2713 22.1422 10.5 22.6917 10.5 23.3334C10.5 23.975 10.2713 24.5245 9.81399 24.9819C9.35743 25.4384 8.80832 25.6667 8.16666 25.6667ZM19.8333 25.6667C19.1917 25.6667 18.6425 25.4384 18.186 24.9819C17.7287 24.5245 17.5 23.975 17.5 23.3334C17.5 22.6917 17.7287 22.1422 18.186 21.6849C18.6425 21.2283 19.1917 21 19.8333 21C20.475 21 21.0245 21.2283 21.4818 21.6849C21.9384 22.1422 22.1667 22.6917 22.1667 23.3334C22.1667 23.975 21.9384 24.5245 21.4818 24.9819C21.0245 25.4384 20.475 25.6667 19.8333 25.6667ZM7.17499 7.00004L9.97499 12.8334H18.1417L21.35 7.00004H7.17499ZM6.06666 4.66671H23.275C23.7222 4.66671 24.0625 4.86582 24.2958 5.26404C24.5292 5.66304 24.5389 6.06671 24.325 6.47504L20.1833 13.9417C19.9694 14.3306 19.6824 14.632 19.3223 14.8459C18.963 15.0598 18.5694 15.1667 18.1417 15.1667H9.44999L8.16666 17.5H22.1667V19.8334H8.16666C7.29166 19.8334 6.63055 19.4492 6.18332 18.6807C5.7361 17.913 5.71666 17.15 6.12499 16.3917L7.69999 13.5334L3.49999 4.66671H1.16666V2.33337H4.95832L6.06666 4.66671ZM9.97499 12.8334H18.1417H9.97499Z" fill="white"/>
</svg>
