<svg width="20" height="24" viewBox="0 0 20 24" fill="none" xmlns="http://www.w3.org/2000/svg">
<path d="M7.77778 21.7143H12.2222C12.2222 22.9715 11.2222 24 10 24C8.77778 24 7.77778 22.9715 7.77778 21.7143ZM20 19.4286V20.5715H0V19.4286L2.22222 17.1429V10.2857C2.22222 6.74289 4.44444 3.65717 7.77778 2.6286V2.28574C7.77778 1.0286 8.77778 3.05176e-05 10 3.05176e-05C11.2222 3.05176e-05 12.2222 1.0286 12.2222 2.28574V2.6286C15.5556 3.65717 17.7778 6.74289 17.7778 10.2857V17.1429L20 19.4286ZM15.5556 10.2857C15.5556 7.08575 13.1111 4.57146 10 4.57146C6.88889 4.57146 4.44444 7.08575 4.44444 10.2857V18.2857H15.5556V10.2857Z" fill="white"/>
</svg>
